<svg xmlns="http://www.w3.org/2000/svg" xmlns:xlink="http://www.w3.org/1999/xlink" version="1.0" x="0px" y="0px" viewBox="0 0 100 125" enable-background="new 0 0 100 100" xml:space="preserve"><path d="M63.5,53.5c-2.4,0-4.7-0.8-6.6-2.2c-2.3-1.7-3.8-4.2-4.2-7c-0.4-2.8,0.2-5.6,1.9-7.8c1.9-2.6,4.9-4,8.2-4  c2.4,0,4.7,0.8,6.6,2.2c2.3,1.7,3.8,4.2,4.2,7c0.4,2.8-0.2,5.6-1.9,7.8C69.8,52.1,66.8,53.5,63.5,53.5z M62.9,35.8  c-2.3,0-4.3,1-5.7,2.8c-1.1,1.5-1.6,3.4-1.3,5.3c0.3,1.9,1.4,3.7,3,4.9c1.4,1,3,1.6,4.6,1.6c2.3,0,4.3-1,5.7-2.8  c1.1-1.5,1.6-3.4,1.3-5.3c-0.3-1.9-1.4-3.7-3-4.9C66.1,36.3,64.5,35.8,62.9,35.8z"/><path d="M33.1,58.7c-0.4,0-0.8-0.2-1.2-0.5l-6.7-6.9l-3.5,3.5c-0.6,0.6-1.6,0.6-2.3,0c-0.6-0.6-0.6-1.6,0-2.3l4.6-4.7  c0.3-0.3,0.7-0.5,1.2-0.5c0,0,0,0,0,0c0.4,0,0.9,0.2,1.2,0.5l7,7.2L44,48.5c0,0,0.1-0.1,0.1-0.1l7.8-3.7c0.8-0.4,1.8,0,2.2,0.8  c0.4,0.8,0,1.8-0.8,2.2l-7.7,3.7L34,58.4C33.7,58.6,33.4,58.7,33.1,58.7z"/><path d="M35.9,78c-0.4,0-0.8-0.2-1.1-0.5l-4.5-4.4c-0.4-0.4-0.6-0.9-0.5-1.4c0.1-0.5,0.4-1,0.9-1.2l12.1-5.6L43.2,50  c0-0.9,0.7-1.6,1.6-1.6c0,0,0,0,0,0c0.9,0,1.6,0.8,1.6,1.6l-0.3,15.9c0,0.6-0.4,1.2-0.9,1.4l-10.9,5.1l2.8,2.7  c0.6,0.6,0.6,1.6,0,2.3C36.8,77.8,36.4,78,35.9,78z"/><path d="M54.7,80.9c-0.7,0-1.3-0.4-1.5-1.1l-1.7-5.2h-4.9l-1.8,5c-0.3,0.8-1.2,1.3-2.1,1c-0.8-0.3-1.3-1.2-1-2.1l2.2-6.1  c0.2-0.6,0.8-1.1,1.5-1.1h7.2c0.7,0,1.3,0.5,1.5,1.1l2,6.3c0.3,0.8-0.2,1.8-1,2C55.1,80.9,54.9,80.9,54.7,80.9z"/><path d="M65,28.8c-0.9,0-1.6-0.7-1.6-1.6v-6.5c0-0.9,0.7-1.6,1.6-1.6s1.6,0.7,1.6,1.6v6.5C66.6,28.1,65.9,28.8,65,28.8z"/><path d="M75.3,33.2c-0.4,0-0.7-0.1-1-0.4c-0.7-0.6-0.8-1.6-0.2-2.3l4.2-4.9c0.6-0.7,1.6-0.8,2.3-0.2c0.7,0.6,0.8,1.6,0.2,2.3  l-4.2,4.9C76.2,33,75.7,33.2,75.3,33.2z"/><text x="0" y="115" fill="#000000" font-size="5px" font-weight="bold" font-family="'Helvetica Neue', Helvetica, Arial-Unicode, Arial, Sans-serif">Created by Daniele Catalanotto</text><text x="0" y="120" fill="#000000" font-size="5px" font-weight="bold" font-family="'Helvetica Neue', Helvetica, Arial-Unicode, Arial, Sans-serif">from the Noun Project</text></svg>