<svg xmlns="http://www.w3.org/2000/svg" xmlns:xlink="http://www.w3.org/1999/xlink" version="1.1" x="0px" y="0px" viewBox="0 0 100 125" enable-background="new 0 0 100 100" xml:space="preserve"><g><path d="M85.062,44.228C77.671,20.809,66.119,9.424,49.749,9.424c-16.476,0-28.359,11.718-35.322,34.829   C10.623,56.881,7.2,71.141,14.786,80.527c5.085,6.293,17.6,10.049,33.479,10.049c0.001,0,0,0,0.001,0   c12.184,0,29.002-2.59,36.303-9.893C93.688,71.564,88.702,55.766,85.062,44.228z M81.74,77.855   c-5.216,5.217-18.67,8.721-33.476,8.721c-14.463,0-26.1-3.281-30.367-8.563c-6.36-7.871-3.149-20.957,0.359-32.606   c6.394-21.223,16.989-31.983,31.492-31.983c14.398,0,24.702,10.47,31.499,32.009C85.408,58.617,88.576,71.02,81.74,77.855z"/><path d="M39.241,63.709c-3.308,0-5.998,2.691-5.998,5.998s2.69,5.998,5.998,5.998s5.998-2.691,5.998-5.998   S42.548,63.709,39.241,63.709z M39.241,71.705c-1.102,0-1.998-0.896-1.998-1.998s0.896-1.998,1.998-1.998s1.998,0.896,1.998,1.998   S40.342,71.705,39.241,71.705z"/><path d="M45.14,47.314l-8.899-3.164c-1.041-0.373-2.184,0.174-2.555,1.215c-0.37,1.04,0.174,2.184,1.215,2.554l8.899,3.164   c0.222,0.08,0.447,0.117,0.67,0.117c0.822,0,1.593-0.512,1.885-1.331C46.725,48.828,46.181,47.683,45.14,47.314z"/><path d="M34.593,31.208c-0.005,0-0.011,0-0.017,0c-1.104,0.002-1.999,0.898-1.998,2.002c0.001,1.104,0.896,1.998,2,1.998   c0.004,0.001,0.01,0,0.015,0c7.317,0,8.771,5.506,8.914,6.145c0.201,0.938,1.029,1.581,1.953,1.581   c0.135,0,0.271-0.014,0.409-0.042c1.081-0.225,1.775-1.284,1.551-2.365C46.75,37.302,43.207,31.208,34.593,31.208z"/><path d="M63.76,44.15l-8.899,3.164c-1.041,0.369-1.585,1.514-1.215,2.555c0.292,0.818,1.063,1.331,1.885,1.331   c0.223,0,0.448-0.037,0.67-0.117l8.899-3.164c1.041-0.37,1.585-1.514,1.215-2.554C65.943,44.324,64.801,43.777,63.76,44.15z"/><path d="M65.424,31.208c-0.006,0-0.011,0-0.017,0c-8.612,0-12.156,6.094-12.827,9.318c-0.224,1.075,0.464,2.122,1.537,2.354   c0.142,0.031,0.282,0.045,0.421,0.045c0.918,0,1.746-0.639,1.955-1.57c0.141-0.629,1.588-6.146,8.914-6.146   c0.005,0,0.01,0.001,0.015,0c1.104,0,1.999-0.895,2-1.998S66.528,31.21,65.424,31.208z"/></g><text x="0" y="115" fill="#000000" font-size="5px" font-weight="bold" font-family="'Helvetica Neue', Helvetica, Arial-Unicode, Arial, Sans-serif">Created by Darshana Girkar</text><text x="0" y="120" fill="#000000" font-size="5px" font-weight="bold" font-family="'Helvetica Neue', Helvetica, Arial-Unicode, Arial, Sans-serif">from the Noun Project</text></svg>